<mxfile host="app.diagrams.net" agent="Mozilla/5.0 (Macintosh; Intel Mac OS X 10_15_7) AppleWebKit/537.36 (KHTML, like Gecko) Chrome/127.0.0.0 Safari/537.36" version="24.7.8">
  <diagram name="PÃ¡gina-1" id="bY0rpKTdHIlPoDnQFxaH">
    <mxGraphModel dx="1117" dy="1181" grid="0" gridSize="10" guides="1" tooltips="1" connect="1" arrows="1" fold="1" page="0" pageScale="1" pageWidth="827" pageHeight="1169" math="0" shadow="0">
      <root>
        <mxCell id="0" />
        <mxCell id="1" parent="0" />
        <mxCell id="wcbFm191Xv4B1f_YWwnQ-242" value="" style="rounded=0;whiteSpace=wrap;html=1;align=left;verticalAlign=middle;fontFamily=Helvetica;fontSize=12;fontColor=default;labelBackgroundColor=default;fillColor=none;gradientColor=none;" vertex="1" parent="1">
          <mxGeometry x="-64" y="-493" width="120" height="120" as="geometry" />
        </mxCell>
        <mxCell id="wcbFm191Xv4B1f_YWwnQ-208" style="edgeStyle=orthogonalEdgeStyle;shape=connector;rounded=0;orthogonalLoop=1;jettySize=auto;html=1;entryX=0.5;entryY=0;entryDx=0;entryDy=0;strokeColor=default;align=center;verticalAlign=middle;fontFamily=Helvetica;fontSize=12;fontColor=default;labelBackgroundColor=default;endArrow=none;endFill=0;" edge="1" parent="1" source="wcbFm191Xv4B1f_YWwnQ-1" target="wcbFm191Xv4B1f_YWwnQ-10">
          <mxGeometry relative="1" as="geometry" />
        </mxCell>
        <mxCell id="wcbFm191Xv4B1f_YWwnQ-210" style="edgeStyle=orthogonalEdgeStyle;shape=connector;rounded=0;orthogonalLoop=1;jettySize=auto;html=1;entryX=0;entryY=0.5;entryDx=0;entryDy=0;strokeColor=default;align=center;verticalAlign=middle;fontFamily=Helvetica;fontSize=12;fontColor=default;labelBackgroundColor=default;endArrow=none;endFill=0;" edge="1" parent="1" source="wcbFm191Xv4B1f_YWwnQ-1" target="wcbFm191Xv4B1f_YWwnQ-5">
          <mxGeometry relative="1" as="geometry" />
        </mxCell>
        <mxCell id="wcbFm191Xv4B1f_YWwnQ-1" value="Doctor" style="rounded=0;whiteSpace=wrap;html=1;" vertex="1" parent="1">
          <mxGeometry x="-64" y="-580" width="120" height="50" as="geometry" />
        </mxCell>
        <mxCell id="wcbFm191Xv4B1f_YWwnQ-211" style="edgeStyle=orthogonalEdgeStyle;shape=connector;rounded=0;orthogonalLoop=1;jettySize=auto;html=1;entryX=1;entryY=0.5;entryDx=0;entryDy=0;strokeColor=default;align=center;verticalAlign=middle;fontFamily=Helvetica;fontSize=12;fontColor=default;labelBackgroundColor=default;endArrow=none;endFill=0;" edge="1" parent="1" source="wcbFm191Xv4B1f_YWwnQ-2" target="wcbFm191Xv4B1f_YWwnQ-5">
          <mxGeometry relative="1" as="geometry" />
        </mxCell>
        <mxCell id="wcbFm191Xv4B1f_YWwnQ-2" value="Appointment" style="rounded=0;whiteSpace=wrap;html=1;" vertex="1" parent="1">
          <mxGeometry x="353" y="-580" width="120" height="50" as="geometry" />
        </mxCell>
        <mxCell id="wcbFm191Xv4B1f_YWwnQ-3" value="Patient" style="rounded=0;whiteSpace=wrap;html=1;" vertex="1" parent="1">
          <mxGeometry x="353" y="-337" width="120" height="50" as="geometry" />
        </mxCell>
        <mxCell id="wcbFm191Xv4B1f_YWwnQ-207" style="edgeStyle=orthogonalEdgeStyle;shape=connector;rounded=0;orthogonalLoop=1;jettySize=auto;html=1;entryX=0;entryY=0.5;entryDx=0;entryDy=0;strokeColor=default;align=center;verticalAlign=middle;fontFamily=Helvetica;fontSize=12;fontColor=default;labelBackgroundColor=default;endArrow=none;endFill=0;" edge="1" parent="1" source="wcbFm191Xv4B1f_YWwnQ-4" target="wcbFm191Xv4B1f_YWwnQ-11">
          <mxGeometry relative="1" as="geometry" />
        </mxCell>
        <mxCell id="wcbFm191Xv4B1f_YWwnQ-4" value="Insurance" style="rounded=0;whiteSpace=wrap;html=1;" vertex="1" parent="1">
          <mxGeometry x="-64" y="-337" width="120" height="50" as="geometry" />
        </mxCell>
        <mxCell id="wcbFm191Xv4B1f_YWwnQ-5" value="makes" style="rhombus;whiteSpace=wrap;html=1;rounded=0;strokeColor=default;align=center;verticalAlign=middle;fontFamily=Helvetica;fontSize=12;fontColor=default;fillColor=default;" vertex="1" parent="1">
          <mxGeometry x="155" y="-580" width="100" height="50" as="geometry" />
        </mxCell>
        <mxCell id="wcbFm191Xv4B1f_YWwnQ-201" style="edgeStyle=orthogonalEdgeStyle;rounded=0;orthogonalLoop=1;jettySize=auto;html=1;entryX=0.5;entryY=1;entryDx=0;entryDy=0;fontFamily=Helvetica;fontSize=12;fontColor=default;endArrow=none;endFill=0;" edge="1" parent="1" source="wcbFm191Xv4B1f_YWwnQ-9" target="wcbFm191Xv4B1f_YWwnQ-2">
          <mxGeometry relative="1" as="geometry" />
        </mxCell>
        <mxCell id="wcbFm191Xv4B1f_YWwnQ-202" style="edgeStyle=orthogonalEdgeStyle;rounded=0;orthogonalLoop=1;jettySize=auto;html=1;entryX=0.5;entryY=0;entryDx=0;entryDy=0;fontFamily=Helvetica;fontSize=12;fontColor=default;endArrow=none;endFill=0;" edge="1" parent="1" source="wcbFm191Xv4B1f_YWwnQ-9" target="wcbFm191Xv4B1f_YWwnQ-3">
          <mxGeometry relative="1" as="geometry" />
        </mxCell>
        <mxCell id="wcbFm191Xv4B1f_YWwnQ-9" value="has" style="rhombus;whiteSpace=wrap;html=1;rounded=0;strokeColor=default;align=center;verticalAlign=middle;fontFamily=Helvetica;fontSize=12;fontColor=default;fillColor=default;" vertex="1" parent="1">
          <mxGeometry x="363" y="-458" width="100" height="50" as="geometry" />
        </mxCell>
        <mxCell id="wcbFm191Xv4B1f_YWwnQ-209" style="edgeStyle=orthogonalEdgeStyle;shape=connector;rounded=0;orthogonalLoop=1;jettySize=auto;html=1;strokeColor=default;align=center;verticalAlign=middle;fontFamily=Helvetica;fontSize=12;fontColor=default;labelBackgroundColor=default;endArrow=none;endFill=0;" edge="1" parent="1" source="wcbFm191Xv4B1f_YWwnQ-10" target="wcbFm191Xv4B1f_YWwnQ-4">
          <mxGeometry relative="1" as="geometry" />
        </mxCell>
        <mxCell id="wcbFm191Xv4B1f_YWwnQ-10" value="Accepts" style="rhombus;whiteSpace=wrap;html=1;rounded=0;strokeColor=default;align=center;verticalAlign=middle;fontFamily=Helvetica;fontSize=12;fontColor=default;fillColor=default;" vertex="1" parent="1">
          <mxGeometry x="-54" y="-458" width="100" height="50" as="geometry" />
        </mxCell>
        <mxCell id="wcbFm191Xv4B1f_YWwnQ-203" style="edgeStyle=orthogonalEdgeStyle;shape=connector;rounded=0;orthogonalLoop=1;jettySize=auto;html=1;entryX=0;entryY=0.5;entryDx=0;entryDy=0;strokeColor=default;align=center;verticalAlign=middle;fontFamily=Helvetica;fontSize=12;fontColor=default;labelBackgroundColor=default;endArrow=none;endFill=0;" edge="1" parent="1" source="wcbFm191Xv4B1f_YWwnQ-11" target="wcbFm191Xv4B1f_YWwnQ-3">
          <mxGeometry relative="1" as="geometry" />
        </mxCell>
        <mxCell id="wcbFm191Xv4B1f_YWwnQ-11" value="own" style="rhombus;whiteSpace=wrap;html=1;rounded=0;strokeColor=default;align=center;verticalAlign=middle;fontFamily=Helvetica;fontSize=12;fontColor=default;fillColor=default;" vertex="1" parent="1">
          <mxGeometry x="155" y="-337" width="100" height="50" as="geometry" />
        </mxCell>
        <mxCell id="wcbFm191Xv4B1f_YWwnQ-29" value="" style="group" vertex="1" connectable="0" parent="1">
          <mxGeometry x="-62" y="-667" width="102" height="17" as="geometry" />
        </mxCell>
        <mxCell id="wcbFm191Xv4B1f_YWwnQ-30" value="" style="endArrow=oval;html=1;rounded=0;fontFamily=Helvetica;fontSize=12;fontColor=default;strokeColor=default;entryX=0.5;entryY=0;entryDx=0;entryDy=0;endFill=0;" edge="1" parent="wcbFm191Xv4B1f_YWwnQ-29">
          <mxGeometry width="50" height="50" relative="1" as="geometry">
            <mxPoint y="9" as="sourcePoint" />
            <mxPoint x="60" y="9" as="targetPoint" />
          </mxGeometry>
        </mxCell>
        <mxCell id="wcbFm191Xv4B1f_YWwnQ-31" value="&lt;span style=&quot;font-size: 10px;&quot;&gt;Name&lt;/span&gt;" style="text;html=1;align=left;verticalAlign=middle;whiteSpace=wrap;rounded=0;fontFamily=Helvetica;fontSize=12;fontColor=default;" vertex="1" parent="wcbFm191Xv4B1f_YWwnQ-29">
          <mxGeometry x="64" width="38" height="17" as="geometry" />
        </mxCell>
        <mxCell id="wcbFm191Xv4B1f_YWwnQ-32" value="" style="group" vertex="1" connectable="0" parent="1">
          <mxGeometry x="-62" y="-650" width="102" height="17" as="geometry" />
        </mxCell>
        <mxCell id="wcbFm191Xv4B1f_YWwnQ-33" value="" style="endArrow=oval;html=1;rounded=0;fontFamily=Helvetica;fontSize=12;fontColor=default;strokeColor=default;entryX=0.5;entryY=0;entryDx=0;entryDy=0;endFill=0;" edge="1" parent="wcbFm191Xv4B1f_YWwnQ-32">
          <mxGeometry width="50" height="50" relative="1" as="geometry">
            <mxPoint y="9" as="sourcePoint" />
            <mxPoint x="60" y="9" as="targetPoint" />
          </mxGeometry>
        </mxCell>
        <mxCell id="wcbFm191Xv4B1f_YWwnQ-34" value="&lt;span style=&quot;font-size: 10px;&quot;&gt;Phone&lt;/span&gt;" style="text;html=1;align=left;verticalAlign=middle;whiteSpace=wrap;rounded=0;fontFamily=Helvetica;fontSize=12;fontColor=default;" vertex="1" parent="wcbFm191Xv4B1f_YWwnQ-32">
          <mxGeometry x="64" width="38" height="17" as="geometry" />
        </mxCell>
        <mxCell id="wcbFm191Xv4B1f_YWwnQ-35" value="" style="group" vertex="1" connectable="0" parent="1">
          <mxGeometry x="-62" y="-633" width="102" height="17" as="geometry" />
        </mxCell>
        <mxCell id="wcbFm191Xv4B1f_YWwnQ-36" value="" style="endArrow=oval;html=1;rounded=0;fontFamily=Helvetica;fontSize=12;fontColor=default;strokeColor=default;entryX=0.5;entryY=0;entryDx=0;entryDy=0;endFill=0;" edge="1" parent="wcbFm191Xv4B1f_YWwnQ-35">
          <mxGeometry width="50" height="50" relative="1" as="geometry">
            <mxPoint y="9" as="sourcePoint" />
            <mxPoint x="60" y="9" as="targetPoint" />
          </mxGeometry>
        </mxCell>
        <mxCell id="wcbFm191Xv4B1f_YWwnQ-37" value="&lt;span style=&quot;font-size: 10px;&quot;&gt;Email&lt;/span&gt;" style="text;html=1;align=left;verticalAlign=middle;whiteSpace=wrap;rounded=0;fontFamily=Helvetica;fontSize=12;fontColor=default;" vertex="1" parent="wcbFm191Xv4B1f_YWwnQ-35">
          <mxGeometry x="64" width="38" height="17" as="geometry" />
        </mxCell>
        <mxCell id="wcbFm191Xv4B1f_YWwnQ-39" value="" style="group" vertex="1" connectable="0" parent="1">
          <mxGeometry x="-62" y="-617" width="102" height="17" as="geometry" />
        </mxCell>
        <mxCell id="wcbFm191Xv4B1f_YWwnQ-40" value="" style="endArrow=oval;html=1;rounded=0;fontFamily=Helvetica;fontSize=12;fontColor=default;strokeColor=default;entryX=0.5;entryY=0;entryDx=0;entryDy=0;endFill=0;" edge="1" parent="wcbFm191Xv4B1f_YWwnQ-39">
          <mxGeometry width="50" height="50" relative="1" as="geometry">
            <mxPoint y="9" as="sourcePoint" />
            <mxPoint x="60" y="9" as="targetPoint" />
          </mxGeometry>
        </mxCell>
        <mxCell id="wcbFm191Xv4B1f_YWwnQ-41" value="&lt;span style=&quot;font-size: 10px;&quot;&gt;Address&lt;/span&gt;" style="text;html=1;align=left;verticalAlign=middle;whiteSpace=wrap;rounded=0;fontFamily=Helvetica;fontSize=12;fontColor=default;" vertex="1" parent="wcbFm191Xv4B1f_YWwnQ-39">
          <mxGeometry x="64" width="38" height="17" as="geometry" />
        </mxCell>
        <mxCell id="wcbFm191Xv4B1f_YWwnQ-42" value="" style="group" vertex="1" connectable="0" parent="1">
          <mxGeometry x="-62" y="-684" width="102" height="17" as="geometry" />
        </mxCell>
        <mxCell id="wcbFm191Xv4B1f_YWwnQ-17" value="" style="endArrow=oval;html=1;rounded=0;fontFamily=Helvetica;fontSize=12;fontColor=default;strokeColor=default;entryX=0.5;entryY=0;entryDx=0;entryDy=0;endFill=0;" edge="1" parent="wcbFm191Xv4B1f_YWwnQ-42">
          <mxGeometry width="50" height="50" relative="1" as="geometry">
            <mxPoint y="9" as="sourcePoint" />
            <mxPoint x="60" y="9" as="targetPoint" />
          </mxGeometry>
        </mxCell>
        <mxCell id="wcbFm191Xv4B1f_YWwnQ-26" value="&lt;span style=&quot;font-size: 10px;&quot;&gt;Specialty&lt;/span&gt;" style="text;html=1;align=left;verticalAlign=middle;whiteSpace=wrap;rounded=0;fontFamily=Helvetica;fontSize=12;fontColor=default;" vertex="1" parent="wcbFm191Xv4B1f_YWwnQ-42">
          <mxGeometry x="64" width="38" height="17" as="geometry" />
        </mxCell>
        <mxCell id="wcbFm191Xv4B1f_YWwnQ-89" value="" style="endArrow=none;html=1;rounded=0;fontFamily=Helvetica;fontSize=12;fontColor=default;exitX=0.017;exitY=0;exitDx=0;exitDy=0;exitPerimeter=0;" edge="1" parent="1" source="wcbFm191Xv4B1f_YWwnQ-1">
          <mxGeometry width="50" height="50" relative="1" as="geometry">
            <mxPoint x="-112" y="-642" as="sourcePoint" />
            <mxPoint x="-62" y="-692" as="targetPoint" />
          </mxGeometry>
        </mxCell>
        <mxCell id="wcbFm191Xv4B1f_YWwnQ-92" value="" style="group" vertex="1" connectable="0" parent="1">
          <mxGeometry x="72" y="-731" width="102" height="125" as="geometry" />
        </mxCell>
        <mxCell id="wcbFm191Xv4B1f_YWwnQ-43" value="" style="group" vertex="1" connectable="0" parent="wcbFm191Xv4B1f_YWwnQ-92">
          <mxGeometry width="102" height="17" as="geometry" />
        </mxCell>
        <mxCell id="wcbFm191Xv4B1f_YWwnQ-44" value="" style="endArrow=oval;html=1;rounded=0;fontFamily=Helvetica;fontSize=12;fontColor=default;strokeColor=default;entryX=0.5;entryY=0;entryDx=0;entryDy=0;endFill=0;" edge="1" parent="wcbFm191Xv4B1f_YWwnQ-43">
          <mxGeometry width="50" height="50" relative="1" as="geometry">
            <mxPoint y="9" as="sourcePoint" />
            <mxPoint x="60" y="9" as="targetPoint" />
          </mxGeometry>
        </mxCell>
        <mxCell id="wcbFm191Xv4B1f_YWwnQ-45" value="&lt;span style=&quot;font-size: 10px;&quot;&gt;Street&lt;/span&gt;" style="text;html=1;align=left;verticalAlign=middle;whiteSpace=wrap;rounded=0;fontFamily=Helvetica;fontSize=12;fontColor=default;" vertex="1" parent="wcbFm191Xv4B1f_YWwnQ-43">
          <mxGeometry x="64" width="38" height="17" as="geometry" />
        </mxCell>
        <mxCell id="wcbFm191Xv4B1f_YWwnQ-46" value="" style="group" vertex="1" connectable="0" parent="wcbFm191Xv4B1f_YWwnQ-92">
          <mxGeometry y="17" width="102" height="17" as="geometry" />
        </mxCell>
        <mxCell id="wcbFm191Xv4B1f_YWwnQ-47" value="" style="endArrow=oval;html=1;rounded=0;fontFamily=Helvetica;fontSize=12;fontColor=default;strokeColor=default;entryX=0.5;entryY=0;entryDx=0;entryDy=0;endFill=0;" edge="1" parent="wcbFm191Xv4B1f_YWwnQ-46">
          <mxGeometry width="50" height="50" relative="1" as="geometry">
            <mxPoint y="9" as="sourcePoint" />
            <mxPoint x="60" y="9" as="targetPoint" />
          </mxGeometry>
        </mxCell>
        <mxCell id="wcbFm191Xv4B1f_YWwnQ-48" value="&lt;span style=&quot;font-size: 10px;&quot;&gt;Number&lt;/span&gt;" style="text;html=1;align=left;verticalAlign=middle;whiteSpace=wrap;rounded=0;fontFamily=Helvetica;fontSize=12;fontColor=default;" vertex="1" parent="wcbFm191Xv4B1f_YWwnQ-46">
          <mxGeometry x="64" width="38" height="17" as="geometry" />
        </mxCell>
        <mxCell id="wcbFm191Xv4B1f_YWwnQ-61" value="" style="group" vertex="1" connectable="0" parent="wcbFm191Xv4B1f_YWwnQ-92">
          <mxGeometry y="34" width="102" height="17" as="geometry" />
        </mxCell>
        <mxCell id="wcbFm191Xv4B1f_YWwnQ-62" value="" style="endArrow=oval;html=1;rounded=0;fontFamily=Helvetica;fontSize=12;fontColor=default;strokeColor=default;entryX=0.5;entryY=0;entryDx=0;entryDy=0;endFill=0;" edge="1" parent="wcbFm191Xv4B1f_YWwnQ-61">
          <mxGeometry width="50" height="50" relative="1" as="geometry">
            <mxPoint y="9" as="sourcePoint" />
            <mxPoint x="60" y="9" as="targetPoint" />
          </mxGeometry>
        </mxCell>
        <mxCell id="wcbFm191Xv4B1f_YWwnQ-63" value="&lt;span style=&quot;font-size: 10px;&quot;&gt;Complement&lt;/span&gt;" style="text;html=1;align=left;verticalAlign=middle;whiteSpace=wrap;rounded=0;fontFamily=Helvetica;fontSize=12;fontColor=default;" vertex="1" parent="wcbFm191Xv4B1f_YWwnQ-61">
          <mxGeometry x="64" width="38" height="17" as="geometry" />
        </mxCell>
        <mxCell id="wcbFm191Xv4B1f_YWwnQ-73" value="" style="group" vertex="1" connectable="0" parent="wcbFm191Xv4B1f_YWwnQ-92">
          <mxGeometry y="51" width="102" height="17" as="geometry" />
        </mxCell>
        <mxCell id="wcbFm191Xv4B1f_YWwnQ-74" value="" style="endArrow=oval;html=1;rounded=0;fontFamily=Helvetica;fontSize=12;fontColor=default;strokeColor=default;entryX=0.5;entryY=0;entryDx=0;entryDy=0;endFill=0;" edge="1" parent="wcbFm191Xv4B1f_YWwnQ-73">
          <mxGeometry width="50" height="50" relative="1" as="geometry">
            <mxPoint y="9" as="sourcePoint" />
            <mxPoint x="60" y="9" as="targetPoint" />
          </mxGeometry>
        </mxCell>
        <mxCell id="wcbFm191Xv4B1f_YWwnQ-75" value="&lt;span style=&quot;font-size: 10px;&quot;&gt;Neighborhood&lt;/span&gt;" style="text;html=1;align=left;verticalAlign=middle;whiteSpace=wrap;rounded=0;fontFamily=Helvetica;fontSize=12;fontColor=default;" vertex="1" parent="wcbFm191Xv4B1f_YWwnQ-73">
          <mxGeometry x="64" width="38" height="17" as="geometry" />
        </mxCell>
        <mxCell id="wcbFm191Xv4B1f_YWwnQ-76" value="" style="group" vertex="1" connectable="0" parent="wcbFm191Xv4B1f_YWwnQ-92">
          <mxGeometry y="70" width="102" height="17" as="geometry" />
        </mxCell>
        <mxCell id="wcbFm191Xv4B1f_YWwnQ-77" value="" style="endArrow=oval;html=1;rounded=0;fontFamily=Helvetica;fontSize=12;fontColor=default;strokeColor=default;entryX=0.5;entryY=0;entryDx=0;entryDy=0;endFill=0;" edge="1" parent="wcbFm191Xv4B1f_YWwnQ-76">
          <mxGeometry width="50" height="50" relative="1" as="geometry">
            <mxPoint y="9" as="sourcePoint" />
            <mxPoint x="60" y="9" as="targetPoint" />
          </mxGeometry>
        </mxCell>
        <mxCell id="wcbFm191Xv4B1f_YWwnQ-78" value="&lt;span style=&quot;font-size: 10px;&quot;&gt;Cep&lt;/span&gt;" style="text;html=1;align=left;verticalAlign=middle;whiteSpace=wrap;rounded=0;fontFamily=Helvetica;fontSize=12;fontColor=default;" vertex="1" parent="wcbFm191Xv4B1f_YWwnQ-76">
          <mxGeometry x="64" width="38" height="17" as="geometry" />
        </mxCell>
        <mxCell id="wcbFm191Xv4B1f_YWwnQ-79" value="" style="group" vertex="1" connectable="0" parent="wcbFm191Xv4B1f_YWwnQ-92">
          <mxGeometry y="87" width="102" height="17" as="geometry" />
        </mxCell>
        <mxCell id="wcbFm191Xv4B1f_YWwnQ-80" value="" style="endArrow=oval;html=1;rounded=0;fontFamily=Helvetica;fontSize=12;fontColor=default;strokeColor=default;entryX=0.5;entryY=0;entryDx=0;entryDy=0;endFill=0;" edge="1" parent="wcbFm191Xv4B1f_YWwnQ-79">
          <mxGeometry width="50" height="50" relative="1" as="geometry">
            <mxPoint y="9" as="sourcePoint" />
            <mxPoint x="60" y="9" as="targetPoint" />
          </mxGeometry>
        </mxCell>
        <mxCell id="wcbFm191Xv4B1f_YWwnQ-81" value="&lt;span style=&quot;font-size: 10px;&quot;&gt;City&lt;/span&gt;" style="text;html=1;align=left;verticalAlign=middle;whiteSpace=wrap;rounded=0;fontFamily=Helvetica;fontSize=12;fontColor=default;" vertex="1" parent="wcbFm191Xv4B1f_YWwnQ-79">
          <mxGeometry x="64" width="38" height="17" as="geometry" />
        </mxCell>
        <mxCell id="wcbFm191Xv4B1f_YWwnQ-82" value="" style="group" vertex="1" connectable="0" parent="wcbFm191Xv4B1f_YWwnQ-92">
          <mxGeometry y="104" width="102" height="17" as="geometry" />
        </mxCell>
        <mxCell id="wcbFm191Xv4B1f_YWwnQ-83" value="" style="endArrow=oval;html=1;rounded=0;fontFamily=Helvetica;fontSize=12;fontColor=default;strokeColor=default;entryX=0.5;entryY=0;entryDx=0;entryDy=0;endFill=0;" edge="1" parent="wcbFm191Xv4B1f_YWwnQ-82">
          <mxGeometry width="50" height="50" relative="1" as="geometry">
            <mxPoint y="9" as="sourcePoint" />
            <mxPoint x="60" y="9" as="targetPoint" />
          </mxGeometry>
        </mxCell>
        <mxCell id="wcbFm191Xv4B1f_YWwnQ-84" value="&lt;span style=&quot;font-size: 10px;&quot;&gt;State&lt;/span&gt;" style="text;html=1;align=left;verticalAlign=middle;whiteSpace=wrap;rounded=0;fontFamily=Helvetica;fontSize=12;fontColor=default;" vertex="1" parent="wcbFm191Xv4B1f_YWwnQ-82">
          <mxGeometry x="64" width="38" height="17" as="geometry" />
        </mxCell>
        <mxCell id="wcbFm191Xv4B1f_YWwnQ-90" value="" style="endArrow=none;html=1;rounded=0;fontFamily=Helvetica;fontSize=12;fontColor=default;" edge="1" parent="wcbFm191Xv4B1f_YWwnQ-92">
          <mxGeometry width="50" height="50" relative="1" as="geometry">
            <mxPoint y="125" as="sourcePoint" />
            <mxPoint y="9" as="targetPoint" />
          </mxGeometry>
        </mxCell>
        <mxCell id="wcbFm191Xv4B1f_YWwnQ-97" value="" style="endArrow=none;html=1;rounded=0;fontFamily=Helvetica;fontSize=12;fontColor=default;strokeColor=default;endFill=0;" edge="1" parent="1">
          <mxGeometry width="50" height="50" relative="1" as="geometry">
            <mxPoint x="46" y="-607" as="sourcePoint" />
            <mxPoint x="72" y="-607" as="targetPoint" />
          </mxGeometry>
        </mxCell>
        <mxCell id="wcbFm191Xv4B1f_YWwnQ-101" value="" style="group" vertex="1" connectable="0" parent="1">
          <mxGeometry x="357" y="-617" width="102" height="17" as="geometry" />
        </mxCell>
        <mxCell id="wcbFm191Xv4B1f_YWwnQ-102" value="" style="endArrow=oval;html=1;rounded=0;fontFamily=Helvetica;fontSize=12;fontColor=default;strokeColor=default;entryX=0.5;entryY=0;entryDx=0;entryDy=0;endFill=0;" edge="1" parent="wcbFm191Xv4B1f_YWwnQ-101">
          <mxGeometry width="50" height="50" relative="1" as="geometry">
            <mxPoint y="9" as="sourcePoint" />
            <mxPoint x="60" y="9" as="targetPoint" />
          </mxGeometry>
        </mxCell>
        <mxCell id="wcbFm191Xv4B1f_YWwnQ-103" value="&lt;span style=&quot;font-size: 10px;&quot;&gt;Hour&lt;/span&gt;" style="text;html=1;align=left;verticalAlign=middle;whiteSpace=wrap;rounded=0;fontFamily=Helvetica;fontSize=12;fontColor=default;" vertex="1" parent="wcbFm191Xv4B1f_YWwnQ-101">
          <mxGeometry x="64" width="38" height="17" as="geometry" />
        </mxCell>
        <mxCell id="wcbFm191Xv4B1f_YWwnQ-113" value="" style="group" vertex="1" connectable="0" parent="1">
          <mxGeometry x="357" y="-634" width="102" height="17" as="geometry" />
        </mxCell>
        <mxCell id="wcbFm191Xv4B1f_YWwnQ-114" value="" style="endArrow=oval;html=1;rounded=0;fontFamily=Helvetica;fontSize=12;fontColor=default;strokeColor=default;entryX=0.5;entryY=0;entryDx=0;entryDy=0;endFill=0;" edge="1" parent="wcbFm191Xv4B1f_YWwnQ-113">
          <mxGeometry width="50" height="50" relative="1" as="geometry">
            <mxPoint y="9" as="sourcePoint" />
            <mxPoint x="60" y="9" as="targetPoint" />
          </mxGeometry>
        </mxCell>
        <mxCell id="wcbFm191Xv4B1f_YWwnQ-115" value="&lt;span style=&quot;font-size: 10px;&quot;&gt;Date&lt;/span&gt;" style="text;html=1;align=left;verticalAlign=middle;whiteSpace=wrap;rounded=0;fontFamily=Helvetica;fontSize=12;fontColor=default;" vertex="1" parent="wcbFm191Xv4B1f_YWwnQ-113">
          <mxGeometry x="64" width="38" height="17" as="geometry" />
        </mxCell>
        <mxCell id="wcbFm191Xv4B1f_YWwnQ-116" value="" style="endArrow=none;html=1;rounded=0;fontFamily=Helvetica;fontSize=12;fontColor=default;exitX=0.017;exitY=0;exitDx=0;exitDy=0;exitPerimeter=0;" edge="1" parent="1">
          <mxGeometry width="50" height="50" relative="1" as="geometry">
            <mxPoint x="357" y="-580" as="sourcePoint" />
            <mxPoint x="357" y="-679" as="targetPoint" />
          </mxGeometry>
        </mxCell>
        <mxCell id="wcbFm191Xv4B1f_YWwnQ-117" value="" style="group" vertex="1" connectable="0" parent="1">
          <mxGeometry x="357" y="-651" width="116" height="17" as="geometry" />
        </mxCell>
        <mxCell id="wcbFm191Xv4B1f_YWwnQ-99" value="" style="endArrow=oval;html=1;rounded=0;fontFamily=Helvetica;fontSize=12;fontColor=default;strokeColor=default;entryX=0.5;entryY=0;entryDx=0;entryDy=0;endFill=1;" edge="1" parent="wcbFm191Xv4B1f_YWwnQ-117">
          <mxGeometry width="50" height="50" relative="1" as="geometry">
            <mxPoint y="9" as="sourcePoint" />
            <mxPoint x="60" y="9" as="targetPoint" />
          </mxGeometry>
        </mxCell>
        <mxCell id="wcbFm191Xv4B1f_YWwnQ-100" value="&lt;font style=&quot;font-size: 10px;&quot;&gt;ID (PK)&lt;/font&gt;" style="text;html=1;align=left;verticalAlign=middle;whiteSpace=wrap;rounded=0;fontFamily=Helvetica;fontSize=12;fontColor=default;" vertex="1" parent="wcbFm191Xv4B1f_YWwnQ-117">
          <mxGeometry x="65" width="51" height="17" as="geometry" />
        </mxCell>
        <mxCell id="wcbFm191Xv4B1f_YWwnQ-118" value="" style="group" vertex="1" connectable="0" parent="1">
          <mxGeometry x="-62" y="-701" width="116" height="17" as="geometry" />
        </mxCell>
        <mxCell id="wcbFm191Xv4B1f_YWwnQ-16" value="" style="endArrow=oval;html=1;rounded=0;fontFamily=Helvetica;fontSize=12;fontColor=default;strokeColor=default;entryX=0.5;entryY=0;entryDx=0;entryDy=0;endFill=1;" edge="1" parent="wcbFm191Xv4B1f_YWwnQ-118">
          <mxGeometry width="50" height="50" relative="1" as="geometry">
            <mxPoint y="9" as="sourcePoint" />
            <mxPoint x="60" y="9" as="targetPoint" />
          </mxGeometry>
        </mxCell>
        <mxCell id="wcbFm191Xv4B1f_YWwnQ-18" value="&lt;font style=&quot;font-size: 10px;&quot;&gt;CRM (PK)&lt;/font&gt;" style="text;html=1;align=left;verticalAlign=middle;whiteSpace=wrap;rounded=0;fontFamily=Helvetica;fontSize=12;fontColor=default;movable=1;resizable=1;rotatable=1;deletable=1;editable=1;locked=0;connectable=1;" vertex="1" parent="wcbFm191Xv4B1f_YWwnQ-118">
          <mxGeometry x="65" width="51" height="17" as="geometry" />
        </mxCell>
        <mxCell id="wcbFm191Xv4B1f_YWwnQ-119" value="" style="group" vertex="1" connectable="0" parent="1">
          <mxGeometry x="355" y="-234" width="102" height="17" as="geometry" />
        </mxCell>
        <mxCell id="wcbFm191Xv4B1f_YWwnQ-120" value="" style="endArrow=oval;html=1;rounded=0;fontFamily=Helvetica;fontSize=12;fontColor=default;strokeColor=default;entryX=0.5;entryY=0;entryDx=0;entryDy=0;endFill=0;" edge="1" parent="wcbFm191Xv4B1f_YWwnQ-119">
          <mxGeometry width="50" height="50" relative="1" as="geometry">
            <mxPoint y="9" as="sourcePoint" />
            <mxPoint x="60" y="9" as="targetPoint" />
          </mxGeometry>
        </mxCell>
        <mxCell id="wcbFm191Xv4B1f_YWwnQ-121" value="&lt;span style=&quot;font-size: 10px;&quot;&gt;Phone&lt;/span&gt;" style="text;html=1;align=left;verticalAlign=middle;whiteSpace=wrap;rounded=0;fontFamily=Helvetica;fontSize=12;fontColor=default;" vertex="1" parent="wcbFm191Xv4B1f_YWwnQ-119">
          <mxGeometry x="64" width="38" height="17" as="geometry" />
        </mxCell>
        <mxCell id="wcbFm191Xv4B1f_YWwnQ-122" value="" style="group" vertex="1" connectable="0" parent="1">
          <mxGeometry x="355" y="-217" width="102" height="17" as="geometry" />
        </mxCell>
        <mxCell id="wcbFm191Xv4B1f_YWwnQ-123" value="" style="endArrow=oval;html=1;rounded=0;fontFamily=Helvetica;fontSize=12;fontColor=default;strokeColor=default;entryX=0.5;entryY=0;entryDx=0;entryDy=0;endFill=0;" edge="1" parent="wcbFm191Xv4B1f_YWwnQ-122">
          <mxGeometry width="50" height="50" relative="1" as="geometry">
            <mxPoint y="9" as="sourcePoint" />
            <mxPoint x="60" y="9" as="targetPoint" />
          </mxGeometry>
        </mxCell>
        <mxCell id="wcbFm191Xv4B1f_YWwnQ-124" value="&lt;span style=&quot;font-size: 10px;&quot;&gt;Email&lt;/span&gt;" style="text;html=1;align=left;verticalAlign=middle;whiteSpace=wrap;rounded=0;fontFamily=Helvetica;fontSize=12;fontColor=default;" vertex="1" parent="wcbFm191Xv4B1f_YWwnQ-122">
          <mxGeometry x="64" width="38" height="17" as="geometry" />
        </mxCell>
        <mxCell id="wcbFm191Xv4B1f_YWwnQ-125" value="" style="group" vertex="1" connectable="0" parent="1">
          <mxGeometry x="355" y="-200" width="102" height="17" as="geometry" />
        </mxCell>
        <mxCell id="wcbFm191Xv4B1f_YWwnQ-126" value="" style="endArrow=oval;html=1;rounded=0;fontFamily=Helvetica;fontSize=12;fontColor=default;strokeColor=default;entryX=0.5;entryY=0;entryDx=0;entryDy=0;endFill=0;" edge="1" parent="wcbFm191Xv4B1f_YWwnQ-125">
          <mxGeometry width="50" height="50" relative="1" as="geometry">
            <mxPoint y="9" as="sourcePoint" />
            <mxPoint x="60" y="9" as="targetPoint" />
          </mxGeometry>
        </mxCell>
        <mxCell id="wcbFm191Xv4B1f_YWwnQ-127" value="&lt;span style=&quot;font-size: 10px;&quot;&gt;Address&lt;/span&gt;" style="text;html=1;align=left;verticalAlign=middle;whiteSpace=wrap;rounded=0;fontFamily=Helvetica;fontSize=12;fontColor=default;" vertex="1" parent="wcbFm191Xv4B1f_YWwnQ-125">
          <mxGeometry x="64" width="38" height="17" as="geometry" />
        </mxCell>
        <mxCell id="wcbFm191Xv4B1f_YWwnQ-131" value="" style="group" vertex="1" connectable="0" parent="1">
          <mxGeometry x="355" y="-251" width="102" height="17" as="geometry" />
        </mxCell>
        <mxCell id="wcbFm191Xv4B1f_YWwnQ-132" value="" style="endArrow=oval;html=1;rounded=0;fontFamily=Helvetica;fontSize=12;fontColor=default;strokeColor=default;entryX=0.5;entryY=0;entryDx=0;entryDy=0;endFill=0;" edge="1" parent="wcbFm191Xv4B1f_YWwnQ-131">
          <mxGeometry width="50" height="50" relative="1" as="geometry">
            <mxPoint y="9" as="sourcePoint" />
            <mxPoint x="60" y="9" as="targetPoint" />
          </mxGeometry>
        </mxCell>
        <mxCell id="wcbFm191Xv4B1f_YWwnQ-133" value="&lt;span style=&quot;font-size: 10px;&quot;&gt;Name&lt;/span&gt;" style="text;html=1;align=left;verticalAlign=middle;whiteSpace=wrap;rounded=0;fontFamily=Helvetica;fontSize=12;fontColor=default;" vertex="1" parent="wcbFm191Xv4B1f_YWwnQ-131">
          <mxGeometry x="64" width="38" height="17" as="geometry" />
        </mxCell>
        <mxCell id="wcbFm191Xv4B1f_YWwnQ-134" value="" style="endArrow=none;html=1;rounded=0;fontFamily=Helvetica;fontSize=12;fontColor=default;" edge="1" parent="1">
          <mxGeometry width="50" height="50" relative="1" as="geometry">
            <mxPoint x="355" y="-190" as="sourcePoint" />
            <mxPoint x="355" y="-287" as="targetPoint" />
          </mxGeometry>
        </mxCell>
        <mxCell id="wcbFm191Xv4B1f_YWwnQ-142" value="" style="group" vertex="1" connectable="0" parent="1">
          <mxGeometry x="355" y="-269" width="116" height="17" as="geometry" />
        </mxCell>
        <mxCell id="wcbFm191Xv4B1f_YWwnQ-143" value="" style="endArrow=oval;html=1;rounded=0;fontFamily=Helvetica;fontSize=12;fontColor=default;strokeColor=default;entryX=0.5;entryY=0;entryDx=0;entryDy=0;endFill=1;" edge="1" parent="wcbFm191Xv4B1f_YWwnQ-142">
          <mxGeometry width="50" height="50" relative="1" as="geometry">
            <mxPoint y="9" as="sourcePoint" />
            <mxPoint x="60" y="9" as="targetPoint" />
          </mxGeometry>
        </mxCell>
        <mxCell id="wcbFm191Xv4B1f_YWwnQ-144" value="&lt;font style=&quot;font-size: 10px;&quot;&gt;CPF (PK)&lt;/font&gt;" style="text;html=1;align=left;verticalAlign=middle;whiteSpace=wrap;rounded=0;fontFamily=Helvetica;fontSize=12;fontColor=default;movable=1;resizable=1;rotatable=1;deletable=1;editable=1;locked=0;connectable=1;" vertex="1" parent="wcbFm191Xv4B1f_YWwnQ-142">
          <mxGeometry x="65" width="51" height="17" as="geometry" />
        </mxCell>
        <mxCell id="wcbFm191Xv4B1f_YWwnQ-161" value="" style="group" vertex="1" connectable="0" parent="1">
          <mxGeometry x="487" y="-314" width="102" height="125" as="geometry" />
        </mxCell>
        <mxCell id="wcbFm191Xv4B1f_YWwnQ-162" value="" style="group" vertex="1" connectable="0" parent="wcbFm191Xv4B1f_YWwnQ-161">
          <mxGeometry width="102" height="17" as="geometry" />
        </mxCell>
        <mxCell id="wcbFm191Xv4B1f_YWwnQ-163" value="" style="endArrow=oval;html=1;rounded=0;fontFamily=Helvetica;fontSize=12;fontColor=default;strokeColor=default;entryX=0.5;entryY=0;entryDx=0;entryDy=0;endFill=0;" edge="1" parent="wcbFm191Xv4B1f_YWwnQ-162">
          <mxGeometry width="50" height="50" relative="1" as="geometry">
            <mxPoint y="9" as="sourcePoint" />
            <mxPoint x="60" y="9" as="targetPoint" />
          </mxGeometry>
        </mxCell>
        <mxCell id="wcbFm191Xv4B1f_YWwnQ-164" value="&lt;span style=&quot;font-size: 10px;&quot;&gt;Street&lt;/span&gt;" style="text;html=1;align=left;verticalAlign=middle;whiteSpace=wrap;rounded=0;fontFamily=Helvetica;fontSize=12;fontColor=default;" vertex="1" parent="wcbFm191Xv4B1f_YWwnQ-162">
          <mxGeometry x="64" width="38" height="17" as="geometry" />
        </mxCell>
        <mxCell id="wcbFm191Xv4B1f_YWwnQ-165" value="" style="group" vertex="1" connectable="0" parent="wcbFm191Xv4B1f_YWwnQ-161">
          <mxGeometry y="17" width="102" height="17" as="geometry" />
        </mxCell>
        <mxCell id="wcbFm191Xv4B1f_YWwnQ-166" value="" style="endArrow=oval;html=1;rounded=0;fontFamily=Helvetica;fontSize=12;fontColor=default;strokeColor=default;entryX=0.5;entryY=0;entryDx=0;entryDy=0;endFill=0;" edge="1" parent="wcbFm191Xv4B1f_YWwnQ-165">
          <mxGeometry width="50" height="50" relative="1" as="geometry">
            <mxPoint y="9" as="sourcePoint" />
            <mxPoint x="60" y="9" as="targetPoint" />
          </mxGeometry>
        </mxCell>
        <mxCell id="wcbFm191Xv4B1f_YWwnQ-167" value="&lt;span style=&quot;font-size: 10px;&quot;&gt;Number&lt;/span&gt;" style="text;html=1;align=left;verticalAlign=middle;whiteSpace=wrap;rounded=0;fontFamily=Helvetica;fontSize=12;fontColor=default;" vertex="1" parent="wcbFm191Xv4B1f_YWwnQ-165">
          <mxGeometry x="64" width="38" height="17" as="geometry" />
        </mxCell>
        <mxCell id="wcbFm191Xv4B1f_YWwnQ-168" value="" style="group" vertex="1" connectable="0" parent="wcbFm191Xv4B1f_YWwnQ-161">
          <mxGeometry y="34" width="102" height="17" as="geometry" />
        </mxCell>
        <mxCell id="wcbFm191Xv4B1f_YWwnQ-169" value="" style="endArrow=oval;html=1;rounded=0;fontFamily=Helvetica;fontSize=12;fontColor=default;strokeColor=default;entryX=0.5;entryY=0;entryDx=0;entryDy=0;endFill=0;" edge="1" parent="wcbFm191Xv4B1f_YWwnQ-168">
          <mxGeometry width="50" height="50" relative="1" as="geometry">
            <mxPoint y="9" as="sourcePoint" />
            <mxPoint x="60" y="9" as="targetPoint" />
          </mxGeometry>
        </mxCell>
        <mxCell id="wcbFm191Xv4B1f_YWwnQ-170" value="&lt;span style=&quot;font-size: 10px;&quot;&gt;Complement&lt;/span&gt;" style="text;html=1;align=left;verticalAlign=middle;whiteSpace=wrap;rounded=0;fontFamily=Helvetica;fontSize=12;fontColor=default;" vertex="1" parent="wcbFm191Xv4B1f_YWwnQ-168">
          <mxGeometry x="64" width="38" height="17" as="geometry" />
        </mxCell>
        <mxCell id="wcbFm191Xv4B1f_YWwnQ-171" value="" style="group" vertex="1" connectable="0" parent="wcbFm191Xv4B1f_YWwnQ-161">
          <mxGeometry y="51" width="102" height="17" as="geometry" />
        </mxCell>
        <mxCell id="wcbFm191Xv4B1f_YWwnQ-172" value="" style="endArrow=oval;html=1;rounded=0;fontFamily=Helvetica;fontSize=12;fontColor=default;strokeColor=default;entryX=0.5;entryY=0;entryDx=0;entryDy=0;endFill=0;" edge="1" parent="wcbFm191Xv4B1f_YWwnQ-171">
          <mxGeometry width="50" height="50" relative="1" as="geometry">
            <mxPoint y="9" as="sourcePoint" />
            <mxPoint x="60" y="9" as="targetPoint" />
          </mxGeometry>
        </mxCell>
        <mxCell id="wcbFm191Xv4B1f_YWwnQ-173" value="&lt;span style=&quot;font-size: 10px;&quot;&gt;Neighborhood&lt;/span&gt;" style="text;html=1;align=left;verticalAlign=middle;whiteSpace=wrap;rounded=0;fontFamily=Helvetica;fontSize=12;fontColor=default;" vertex="1" parent="wcbFm191Xv4B1f_YWwnQ-171">
          <mxGeometry x="64" width="38" height="17" as="geometry" />
        </mxCell>
        <mxCell id="wcbFm191Xv4B1f_YWwnQ-174" value="" style="group" vertex="1" connectable="0" parent="wcbFm191Xv4B1f_YWwnQ-161">
          <mxGeometry y="70" width="102" height="17" as="geometry" />
        </mxCell>
        <mxCell id="wcbFm191Xv4B1f_YWwnQ-175" value="" style="endArrow=oval;html=1;rounded=0;fontFamily=Helvetica;fontSize=12;fontColor=default;strokeColor=default;entryX=0.5;entryY=0;entryDx=0;entryDy=0;endFill=0;" edge="1" parent="wcbFm191Xv4B1f_YWwnQ-174">
          <mxGeometry width="50" height="50" relative="1" as="geometry">
            <mxPoint y="9" as="sourcePoint" />
            <mxPoint x="60" y="9" as="targetPoint" />
          </mxGeometry>
        </mxCell>
        <mxCell id="wcbFm191Xv4B1f_YWwnQ-176" value="&lt;span style=&quot;font-size: 10px;&quot;&gt;Cep&lt;/span&gt;" style="text;html=1;align=left;verticalAlign=middle;whiteSpace=wrap;rounded=0;fontFamily=Helvetica;fontSize=12;fontColor=default;" vertex="1" parent="wcbFm191Xv4B1f_YWwnQ-174">
          <mxGeometry x="64" width="38" height="17" as="geometry" />
        </mxCell>
        <mxCell id="wcbFm191Xv4B1f_YWwnQ-177" value="" style="group" vertex="1" connectable="0" parent="wcbFm191Xv4B1f_YWwnQ-161">
          <mxGeometry y="87" width="102" height="17" as="geometry" />
        </mxCell>
        <mxCell id="wcbFm191Xv4B1f_YWwnQ-178" value="" style="endArrow=oval;html=1;rounded=0;fontFamily=Helvetica;fontSize=12;fontColor=default;strokeColor=default;entryX=0.5;entryY=0;entryDx=0;entryDy=0;endFill=0;" edge="1" parent="wcbFm191Xv4B1f_YWwnQ-177">
          <mxGeometry width="50" height="50" relative="1" as="geometry">
            <mxPoint y="9" as="sourcePoint" />
            <mxPoint x="60" y="9" as="targetPoint" />
          </mxGeometry>
        </mxCell>
        <mxCell id="wcbFm191Xv4B1f_YWwnQ-179" value="&lt;span style=&quot;font-size: 10px;&quot;&gt;City&lt;/span&gt;" style="text;html=1;align=left;verticalAlign=middle;whiteSpace=wrap;rounded=0;fontFamily=Helvetica;fontSize=12;fontColor=default;" vertex="1" parent="wcbFm191Xv4B1f_YWwnQ-177">
          <mxGeometry x="64" width="38" height="17" as="geometry" />
        </mxCell>
        <mxCell id="wcbFm191Xv4B1f_YWwnQ-180" value="" style="group" vertex="1" connectable="0" parent="wcbFm191Xv4B1f_YWwnQ-161">
          <mxGeometry y="104" width="102" height="17" as="geometry" />
        </mxCell>
        <mxCell id="wcbFm191Xv4B1f_YWwnQ-181" value="" style="endArrow=oval;html=1;rounded=0;fontFamily=Helvetica;fontSize=12;fontColor=default;strokeColor=default;entryX=0.5;entryY=0;entryDx=0;entryDy=0;endFill=0;" edge="1" parent="wcbFm191Xv4B1f_YWwnQ-180">
          <mxGeometry width="50" height="50" relative="1" as="geometry">
            <mxPoint y="9" as="sourcePoint" />
            <mxPoint x="60" y="9" as="targetPoint" />
          </mxGeometry>
        </mxCell>
        <mxCell id="wcbFm191Xv4B1f_YWwnQ-182" value="&lt;span style=&quot;font-size: 10px;&quot;&gt;State&lt;/span&gt;" style="text;html=1;align=left;verticalAlign=middle;whiteSpace=wrap;rounded=0;fontFamily=Helvetica;fontSize=12;fontColor=default;" vertex="1" parent="wcbFm191Xv4B1f_YWwnQ-180">
          <mxGeometry x="64" width="38" height="17" as="geometry" />
        </mxCell>
        <mxCell id="wcbFm191Xv4B1f_YWwnQ-183" value="" style="endArrow=none;html=1;rounded=0;fontFamily=Helvetica;fontSize=12;fontColor=default;" edge="1" parent="wcbFm191Xv4B1f_YWwnQ-161">
          <mxGeometry width="50" height="50" relative="1" as="geometry">
            <mxPoint y="125" as="sourcePoint" />
            <mxPoint y="9" as="targetPoint" />
          </mxGeometry>
        </mxCell>
        <mxCell id="wcbFm191Xv4B1f_YWwnQ-184" value="" style="endArrow=none;html=1;rounded=0;fontFamily=Helvetica;fontSize=12;fontColor=default;strokeColor=default;endFill=0;" edge="1" parent="1">
          <mxGeometry width="50" height="50" relative="1" as="geometry">
            <mxPoint x="461" y="-190" as="sourcePoint" />
            <mxPoint x="487" y="-190" as="targetPoint" />
          </mxGeometry>
        </mxCell>
        <mxCell id="wcbFm191Xv4B1f_YWwnQ-185" value="" style="group" vertex="1" connectable="0" parent="1">
          <mxGeometry x="-62" y="-234" width="102" height="17" as="geometry" />
        </mxCell>
        <mxCell id="wcbFm191Xv4B1f_YWwnQ-186" value="" style="endArrow=oval;html=1;rounded=0;fontFamily=Helvetica;fontSize=12;fontColor=default;strokeColor=default;entryX=0.5;entryY=0;entryDx=0;entryDy=0;endFill=0;" edge="1" parent="wcbFm191Xv4B1f_YWwnQ-185">
          <mxGeometry width="50" height="50" relative="1" as="geometry">
            <mxPoint y="9" as="sourcePoint" />
            <mxPoint x="60" y="9" as="targetPoint" />
          </mxGeometry>
        </mxCell>
        <mxCell id="wcbFm191Xv4B1f_YWwnQ-187" value="&lt;span style=&quot;font-size: 10px;&quot;&gt;Type&lt;/span&gt;" style="text;html=1;align=left;verticalAlign=middle;whiteSpace=wrap;rounded=0;fontFamily=Helvetica;fontSize=12;fontColor=default;" vertex="1" parent="wcbFm191Xv4B1f_YWwnQ-185">
          <mxGeometry x="64" width="38" height="17" as="geometry" />
        </mxCell>
        <mxCell id="wcbFm191Xv4B1f_YWwnQ-188" value="" style="group" vertex="1" connectable="0" parent="1">
          <mxGeometry x="-62" y="-217" width="102" height="17" as="geometry" />
        </mxCell>
        <mxCell id="wcbFm191Xv4B1f_YWwnQ-189" value="" style="endArrow=oval;html=1;rounded=0;fontFamily=Helvetica;fontSize=12;fontColor=default;strokeColor=default;entryX=0.5;entryY=0;entryDx=0;entryDy=0;endFill=0;" edge="1" parent="wcbFm191Xv4B1f_YWwnQ-188">
          <mxGeometry width="50" height="50" relative="1" as="geometry">
            <mxPoint y="9" as="sourcePoint" />
            <mxPoint x="60" y="9" as="targetPoint" />
          </mxGeometry>
        </mxCell>
        <mxCell id="wcbFm191Xv4B1f_YWwnQ-190" value="&lt;span style=&quot;font-size: 10px;&quot;&gt;Expiry_date&lt;/span&gt;" style="text;html=1;align=left;verticalAlign=middle;whiteSpace=wrap;rounded=0;fontFamily=Helvetica;fontSize=12;fontColor=default;" vertex="1" parent="wcbFm191Xv4B1f_YWwnQ-188">
          <mxGeometry x="64" width="38" height="17" as="geometry" />
        </mxCell>
        <mxCell id="wcbFm191Xv4B1f_YWwnQ-191" value="" style="group" vertex="1" connectable="0" parent="1">
          <mxGeometry x="-62" y="-200" width="102" height="17" as="geometry" />
        </mxCell>
        <mxCell id="wcbFm191Xv4B1f_YWwnQ-192" value="" style="endArrow=oval;html=1;rounded=0;fontFamily=Helvetica;fontSize=12;fontColor=default;strokeColor=default;entryX=0.5;entryY=0;entryDx=0;entryDy=0;endFill=0;" edge="1" parent="wcbFm191Xv4B1f_YWwnQ-191">
          <mxGeometry width="50" height="50" relative="1" as="geometry">
            <mxPoint y="9" as="sourcePoint" />
            <mxPoint x="60" y="9" as="targetPoint" />
          </mxGeometry>
        </mxCell>
        <mxCell id="wcbFm191Xv4B1f_YWwnQ-193" value="&lt;span style=&quot;font-size: 10px;&quot;&gt;Participation_percentage&lt;/span&gt;" style="text;html=1;align=left;verticalAlign=middle;whiteSpace=wrap;rounded=0;fontFamily=Helvetica;fontSize=12;fontColor=default;" vertex="1" parent="wcbFm191Xv4B1f_YWwnQ-191">
          <mxGeometry x="64" width="38" height="17" as="geometry" />
        </mxCell>
        <mxCell id="wcbFm191Xv4B1f_YWwnQ-194" value="" style="group" vertex="1" connectable="0" parent="1">
          <mxGeometry x="-62" y="-251" width="102" height="17" as="geometry" />
        </mxCell>
        <mxCell id="wcbFm191Xv4B1f_YWwnQ-195" value="" style="endArrow=oval;html=1;rounded=0;fontFamily=Helvetica;fontSize=12;fontColor=default;strokeColor=default;entryX=0.5;entryY=0;entryDx=0;entryDy=0;endFill=0;" edge="1" parent="wcbFm191Xv4B1f_YWwnQ-194">
          <mxGeometry width="50" height="50" relative="1" as="geometry">
            <mxPoint y="9" as="sourcePoint" />
            <mxPoint x="60" y="9" as="targetPoint" />
          </mxGeometry>
        </mxCell>
        <mxCell id="wcbFm191Xv4B1f_YWwnQ-196" value="&lt;span style=&quot;font-size: 10px;&quot;&gt;Company&lt;/span&gt;" style="text;html=1;align=left;verticalAlign=middle;whiteSpace=wrap;rounded=0;fontFamily=Helvetica;fontSize=12;fontColor=default;" vertex="1" parent="wcbFm191Xv4B1f_YWwnQ-194">
          <mxGeometry x="64" width="38" height="17" as="geometry" />
        </mxCell>
        <mxCell id="wcbFm191Xv4B1f_YWwnQ-197" value="" style="endArrow=none;html=1;rounded=0;fontFamily=Helvetica;fontSize=12;fontColor=default;" edge="1" parent="1">
          <mxGeometry width="50" height="50" relative="1" as="geometry">
            <mxPoint x="-62" y="-190" as="sourcePoint" />
            <mxPoint x="-62" y="-287" as="targetPoint" />
          </mxGeometry>
        </mxCell>
        <mxCell id="wcbFm191Xv4B1f_YWwnQ-198" value="" style="group" vertex="1" connectable="0" parent="1">
          <mxGeometry x="-62" y="-269" width="157" height="17" as="geometry" />
        </mxCell>
        <mxCell id="wcbFm191Xv4B1f_YWwnQ-199" value="" style="endArrow=oval;html=1;rounded=0;fontFamily=Helvetica;fontSize=12;fontColor=default;strokeColor=default;entryX=0.5;entryY=0;entryDx=0;entryDy=0;endFill=1;" edge="1" parent="wcbFm191Xv4B1f_YWwnQ-198">
          <mxGeometry width="50" height="50" relative="1" as="geometry">
            <mxPoint y="9" as="sourcePoint" />
            <mxPoint x="60" y="9" as="targetPoint" />
          </mxGeometry>
        </mxCell>
        <mxCell id="wcbFm191Xv4B1f_YWwnQ-200" value="&lt;font style=&quot;font-size: 10px;&quot;&gt;Insurance_ID (PK)&lt;/font&gt;" style="text;html=1;align=left;verticalAlign=middle;whiteSpace=wrap;rounded=0;fontFamily=Helvetica;fontSize=12;fontColor=default;movable=1;resizable=1;rotatable=1;deletable=1;editable=1;locked=0;connectable=1;" vertex="1" parent="wcbFm191Xv4B1f_YWwnQ-198">
          <mxGeometry x="65" width="92" height="17" as="geometry" />
        </mxCell>
        <mxCell id="wcbFm191Xv4B1f_YWwnQ-212" value="&lt;font style=&quot;font-size: 10px;&quot;&gt;(0:n)&lt;/font&gt;" style="text;html=1;align=center;verticalAlign=middle;whiteSpace=wrap;rounded=0;fontFamily=Helvetica;fontSize=12;fontColor=default;labelBackgroundColor=default;" vertex="1" parent="1">
          <mxGeometry x="56" y="-573" width="25" height="20" as="geometry" />
        </mxCell>
        <mxCell id="wcbFm191Xv4B1f_YWwnQ-213" value="&lt;font style=&quot;font-size: 10px;&quot;&gt;(1:1)&lt;/font&gt;" style="text;html=1;align=center;verticalAlign=middle;whiteSpace=wrap;rounded=0;fontFamily=Helvetica;fontSize=12;fontColor=default;labelBackgroundColor=default;" vertex="1" parent="1">
          <mxGeometry x="328" y="-575" width="25" height="20" as="geometry" />
        </mxCell>
        <mxCell id="wcbFm191Xv4B1f_YWwnQ-214" value="&lt;font style=&quot;font-size: 10px;&quot;&gt;(0:n)&lt;/font&gt;" style="text;html=1;align=center;verticalAlign=middle;whiteSpace=wrap;rounded=0;fontFamily=Helvetica;fontSize=12;fontColor=default;labelBackgroundColor=default;" vertex="1" parent="1">
          <mxGeometry x="-4" y="-530" width="25" height="20" as="geometry" />
        </mxCell>
        <mxCell id="wcbFm191Xv4B1f_YWwnQ-215" value="&lt;font style=&quot;font-size: 10px;&quot;&gt;(0:n)&lt;/font&gt;" style="text;html=1;align=center;verticalAlign=middle;whiteSpace=wrap;rounded=0;fontFamily=Helvetica;fontSize=12;fontColor=default;labelBackgroundColor=default;" vertex="1" parent="1">
          <mxGeometry x="-4" y="-357" width="25" height="20" as="geometry" />
        </mxCell>
        <mxCell id="wcbFm191Xv4B1f_YWwnQ-216" value="&lt;font style=&quot;font-size: 10px;&quot;&gt;(1:1)&lt;/font&gt;" style="text;html=1;align=center;verticalAlign=middle;whiteSpace=wrap;rounded=0;fontFamily=Helvetica;fontSize=12;fontColor=default;labelBackgroundColor=default;" vertex="1" parent="1">
          <mxGeometry x="413" y="-530" width="25" height="20" as="geometry" />
        </mxCell>
        <mxCell id="wcbFm191Xv4B1f_YWwnQ-217" value="&lt;font style=&quot;font-size: 10px;&quot;&gt;(0:n)&lt;/font&gt;" style="text;html=1;align=center;verticalAlign=middle;whiteSpace=wrap;rounded=0;fontFamily=Helvetica;fontSize=12;fontColor=default;labelBackgroundColor=default;" vertex="1" parent="1">
          <mxGeometry x="413" y="-357" width="25" height="20" as="geometry" />
        </mxCell>
        <mxCell id="wcbFm191Xv4B1f_YWwnQ-218" value="&lt;font style=&quot;font-size: 10px;&quot;&gt;(0:n)&lt;/font&gt;" style="text;html=1;align=center;verticalAlign=middle;whiteSpace=wrap;rounded=0;fontFamily=Helvetica;fontSize=12;fontColor=default;labelBackgroundColor=default;" vertex="1" parent="1">
          <mxGeometry x="328" y="-332" width="25" height="20" as="geometry" />
        </mxCell>
        <mxCell id="wcbFm191Xv4B1f_YWwnQ-219" value="&lt;font style=&quot;font-size: 10px;&quot;&gt;(0:n)&lt;/font&gt;" style="text;html=1;align=center;verticalAlign=middle;whiteSpace=wrap;rounded=0;fontFamily=Helvetica;fontSize=12;fontColor=default;labelBackgroundColor=default;" vertex="1" parent="1">
          <mxGeometry x="56" y="-332" width="25" height="20" as="geometry" />
        </mxCell>
        <mxCell id="wcbFm191Xv4B1f_YWwnQ-220" value="" style="group" vertex="1" connectable="0" parent="1">
          <mxGeometry x="357" y="-670" width="116" height="17" as="geometry" />
        </mxCell>
        <mxCell id="wcbFm191Xv4B1f_YWwnQ-221" value="" style="endArrow=oval;html=1;rounded=0;fontFamily=Helvetica;fontSize=12;fontColor=default;strokeColor=default;entryX=0.5;entryY=0;entryDx=0;entryDy=0;endFill=0;" edge="1" parent="wcbFm191Xv4B1f_YWwnQ-220">
          <mxGeometry width="50" height="50" relative="1" as="geometry">
            <mxPoint y="9" as="sourcePoint" />
            <mxPoint x="60" y="9" as="targetPoint" />
          </mxGeometry>
        </mxCell>
        <mxCell id="wcbFm191Xv4B1f_YWwnQ-222" value="&lt;font style=&quot;font-size: 10px;&quot;&gt;CRM (FK)&lt;/font&gt;" style="text;html=1;align=left;verticalAlign=middle;whiteSpace=wrap;rounded=0;fontFamily=Helvetica;fontSize=12;fontColor=default;movable=1;resizable=1;rotatable=1;deletable=1;editable=1;locked=0;connectable=1;" vertex="1" parent="wcbFm191Xv4B1f_YWwnQ-220">
          <mxGeometry x="65" width="51" height="17" as="geometry" />
        </mxCell>
        <mxCell id="wcbFm191Xv4B1f_YWwnQ-223" value="" style="group" vertex="1" connectable="0" parent="1">
          <mxGeometry x="357" y="-688" width="116" height="17" as="geometry" />
        </mxCell>
        <mxCell id="wcbFm191Xv4B1f_YWwnQ-224" value="" style="endArrow=oval;html=1;rounded=0;fontFamily=Helvetica;fontSize=12;fontColor=default;strokeColor=default;entryX=0.5;entryY=0;entryDx=0;entryDy=0;endFill=0;" edge="1" parent="wcbFm191Xv4B1f_YWwnQ-223">
          <mxGeometry width="50" height="50" relative="1" as="geometry">
            <mxPoint y="9" as="sourcePoint" />
            <mxPoint x="60" y="9" as="targetPoint" />
          </mxGeometry>
        </mxCell>
        <mxCell id="wcbFm191Xv4B1f_YWwnQ-225" value="&lt;font style=&quot;font-size: 10px;&quot;&gt;CPF (FK)&lt;/font&gt;" style="text;html=1;align=left;verticalAlign=middle;whiteSpace=wrap;rounded=0;fontFamily=Helvetica;fontSize=12;fontColor=default;movable=1;resizable=1;rotatable=1;deletable=1;editable=1;locked=0;connectable=1;" vertex="1" parent="wcbFm191Xv4B1f_YWwnQ-223">
          <mxGeometry x="65" width="51" height="17" as="geometry" />
        </mxCell>
        <mxCell id="wcbFm191Xv4B1f_YWwnQ-226" value="" style="rounded=0;whiteSpace=wrap;html=1;align=left;verticalAlign=middle;fontFamily=Helvetica;fontSize=12;fontColor=default;labelBackgroundColor=default;fillColor=none;gradientColor=none;" vertex="1" parent="1">
          <mxGeometry x="145" y="-372" width="120" height="120" as="geometry" />
        </mxCell>
        <mxCell id="wcbFm191Xv4B1f_YWwnQ-227" value="Insurance_patient" style="text;html=1;align=center;verticalAlign=middle;whiteSpace=wrap;rounded=0;fontFamily=Helvetica;fontSize=12;fontColor=default;labelBackgroundColor=default;" vertex="1" parent="1">
          <mxGeometry x="147" y="-372" width="116" height="30" as="geometry" />
        </mxCell>
        <mxCell id="wcbFm191Xv4B1f_YWwnQ-234" value="" style="group" vertex="1" connectable="0" parent="1">
          <mxGeometry x="66" y="-470" width="157" height="17" as="geometry" />
        </mxCell>
        <mxCell id="wcbFm191Xv4B1f_YWwnQ-235" value="" style="endArrow=oval;html=1;rounded=0;fontFamily=Helvetica;fontSize=12;fontColor=default;strokeColor=default;entryX=0.5;entryY=0;entryDx=0;entryDy=0;endFill=0;" edge="1" parent="wcbFm191Xv4B1f_YWwnQ-234">
          <mxGeometry width="50" height="50" relative="1" as="geometry">
            <mxPoint y="9" as="sourcePoint" />
            <mxPoint x="60" y="9" as="targetPoint" />
          </mxGeometry>
        </mxCell>
        <mxCell id="wcbFm191Xv4B1f_YWwnQ-236" value="&lt;font style=&quot;font-size: 10px;&quot;&gt;Insurance_ID (PK)&lt;/font&gt;" style="text;html=1;align=left;verticalAlign=middle;whiteSpace=wrap;rounded=0;fontFamily=Helvetica;fontSize=12;fontColor=default;movable=1;resizable=1;rotatable=1;deletable=1;editable=1;locked=0;connectable=1;" vertex="1" parent="wcbFm191Xv4B1f_YWwnQ-234">
          <mxGeometry x="65" width="92" height="17" as="geometry" />
        </mxCell>
        <mxCell id="wcbFm191Xv4B1f_YWwnQ-237" value="" style="group" vertex="1" connectable="0" parent="1">
          <mxGeometry x="66" y="-488" width="116" height="17" as="geometry" />
        </mxCell>
        <mxCell id="wcbFm191Xv4B1f_YWwnQ-238" value="" style="endArrow=oval;html=1;rounded=0;fontFamily=Helvetica;fontSize=12;fontColor=default;strokeColor=default;entryX=0.5;entryY=0;entryDx=0;entryDy=0;endFill=0;" edge="1" parent="wcbFm191Xv4B1f_YWwnQ-237">
          <mxGeometry width="50" height="50" relative="1" as="geometry">
            <mxPoint y="9" as="sourcePoint" />
            <mxPoint x="60" y="9" as="targetPoint" />
          </mxGeometry>
        </mxCell>
        <mxCell id="wcbFm191Xv4B1f_YWwnQ-239" value="&lt;font style=&quot;font-size: 10px;&quot;&gt;CRM (PK)&lt;/font&gt;" style="text;html=1;align=left;verticalAlign=middle;whiteSpace=wrap;rounded=0;fontFamily=Helvetica;fontSize=12;fontColor=default;movable=1;resizable=1;rotatable=1;deletable=1;editable=1;locked=0;connectable=1;" vertex="1" parent="wcbFm191Xv4B1f_YWwnQ-237">
          <mxGeometry x="65" width="51" height="17" as="geometry" />
        </mxCell>
        <mxCell id="wcbFm191Xv4B1f_YWwnQ-240" value="" style="endArrow=none;html=1;rounded=0;fontFamily=Helvetica;fontSize=12;fontColor=default;" edge="1" parent="1">
          <mxGeometry width="50" height="50" relative="1" as="geometry">
            <mxPoint x="66" y="-430" as="sourcePoint" />
            <mxPoint x="66" y="-479" as="targetPoint" />
          </mxGeometry>
        </mxCell>
        <mxCell id="wcbFm191Xv4B1f_YWwnQ-241" value="doctor_insurence" style="text;html=1;align=center;verticalAlign=middle;whiteSpace=wrap;rounded=0;fontFamily=Helvetica;fontSize=12;fontColor=default;labelBackgroundColor=default;" vertex="1" parent="1">
          <mxGeometry x="-62" y="-493" width="116" height="30" as="geometry" />
        </mxCell>
        <mxCell id="wcbFm191Xv4B1f_YWwnQ-252" value="" style="endArrow=none;html=1;rounded=0;strokeColor=default;align=center;verticalAlign=middle;fontFamily=Helvetica;fontSize=12;fontColor=default;labelBackgroundColor=default;" edge="1" parent="1">
          <mxGeometry width="50" height="50" relative="1" as="geometry">
            <mxPoint x="56" y="-430" as="sourcePoint" />
            <mxPoint x="66" y="-430" as="targetPoint" />
          </mxGeometry>
        </mxCell>
      </root>
    </mxGraphModel>
  </diagram>
</mxfile>
